<?xml version="1.0" standalone="no"?>
<!DOCTYPE svg PUBLIC "-//W3C//DTD SVG 20010904//EN"
 "http://www.w3.org/TR/2001/REC-SVG-20010904/DTD/svg10.dtd">
<svg version="1.0" xmlns="http://www.w3.org/2000/svg"
 width="1024.000000pt" height="401.000000pt" viewBox="0 0 1024.000000 401.000000"
 preserveAspectRatio="xMidYMid meet">

<g transform="translate(0.000000,401.000000) scale(0.100000,-0.100000)"
fill="#000000" stroke="none">
<path d="M9379 3996 c-182 -52 -345 -211 -402 -391 -18 -57 -22 -94 -22 -200
0 -144 15 -212 81 -354 l34 -74 29 44 c57 88 167 178 372 305 233 144 298 220
307 359 8 127 -58 239 -172 294 -58 29 -161 36 -227 17z"/>
<path d="M8113 3543 c-60 -21 -137 -94 -169 -159 -24 -49 -26 -62 -22 -143 4
-81 8 -98 47 -177 104 -209 309 -334 546 -334 102 0 239 33 354 86 l83 38 -34
17 c-49 25 -174 161 -239 259 -31 47 -90 137 -132 201 -83 127 -125 170 -201
205 -60 28 -166 31 -233 7z"/>
<path d="M7416 3034 c-3 -8 -6 -171 -6 -361 l0 -345 -51 46 c-97 88 -233 136
-380 136 -374 0 -623 -281 -646 -731 -20 -390 126 -698 392 -825 219 -105 496
-77 643 66 47 45 50 43 54 -35 l3 -50 202 -3 203 -2 5 22 c3 13 4 489 3 1058
l-3 1035 -206 3 c-182 2 -207 0 -213 -14z m-181 -928 c54 -25 95 -66 124 -125
37 -74 46 -132 46 -291 0 -138 -3 -161 -23 -212 -50 -124 -162 -208 -277 -208
-187 0 -307 170 -307 434 1 241 68 373 212 417 14 4 59 8 100 8 59 1 86 -4
125 -23z"/>
<path d="M742 2997 c-18 -21 -743 -2040 -738 -2054 4 -11 55 -13 248 -11 l242
3 37 100 c19 55 53 148 73 208 l38 107 359 0 358 0 55 -172 c30 -95 57 -184
61 -198 15 -50 12 -50 271 -50 153 0 245 4 249 10 7 11 -709 2035 -727 2058
-15 18 -511 17 -526 -1z m372 -917 c58 -190 106 -349 106 -353 0 -4 -101 -7
-225 -7 -124 0 -225 3 -225 8 0 24 225 711 231 705 4 -5 55 -163 113 -353z"/>
<path d="M9500 2976 c-74 -17 -151 -43 -232 -79 l-68 -30 43 -27 c90 -57 204
-201 352 -445 68 -112 155 -197 225 -220 187 -64 374 44 410 236 19 100 -34
253 -128 368 -44 54 -140 126 -208 157 -111 49 -276 66 -394 40z"/>
<path d="M2820 2539 c-63 -12 -159 -61 -213 -109 l-46 -41 -3 58 -3 58 -215 0
-215 0 0 -785 0 -785 225 0 225 0 6 460 c6 516 5 514 79 598 63 71 120 91 270
93 l125 2 0 228 0 229 -95 2 c-52 0 -115 -3 -140 -8z"/>
<path d="M3678 2495 c-201 -38 -338 -127 -408 -264 -41 -83 -67 -204 -61 -288
1 -10 49 -13 206 -13 l205 0 6 28 c35 161 91 211 234 212 91 0 140 -13 179
-46 51 -43 54 -124 5 -169 -31 -29 -105 -48 -309 -80 -273 -43 -382 -83 -480
-176 -92 -87 -134 -200 -135 -359 0 -220 104 -362 315 -427 47 -14 92 -18 210
-17 135 0 158 3 231 27 44 15 108 45 143 67 34 22 63 40 65 40 2 0 6 -17 10
-39 3 -21 12 -44 20 -50 9 -8 75 -11 217 -9 l204 3 3 535 c3 590 0 629 -58
757 -56 123 -182 219 -341 259 -91 22 -360 28 -461 9z m400 -943 c-3 -71 -10
-100 -32 -145 -34 -70 -100 -130 -175 -158 -75 -28 -195 -25 -238 7 -56 42
-66 146 -20 216 31 47 111 83 262 117 72 16 141 34 155 40 51 20 53 18 48 -77z"/>
<path d="M5482 2495 c-94 -21 -166 -58 -227 -116 l-56 -53 3 70 3 69 -225 0
-225 0 0 -765 0 -765 225 0 225 0 5 500 5 500 24 53 c28 61 84 114 140 130 21
7 72 12 113 12 96 0 154 -27 183 -85 19 -38 20 -63 23 -567 2 -425 5 -528 16
-537 9 -8 82 -11 232 -9 l219 3 3 550 c3 606 0 642 -53 755 -58 120 -143 195
-271 241 -77 28 -270 35 -362 14z"/>
<path d="M8559 2495 c-297 -56 -456 -225 -471 -500 l-3 -60 207 -3 206 -2 11
50 c22 102 66 159 141 181 57 17 187 8 235 -17 51 -26 80 -80 70 -131 -14 -74
-63 -95 -340 -138 -274 -43 -395 -89 -489 -183 -175 -175 -168 -548 13 -691
102 -80 197 -106 391 -106 135 1 151 3 230 31 47 17 111 47 141 67 64 42 69
44 69 18 0 -10 5 -32 11 -50 l11 -31 212 2 211 3 0 560 c0 505 -2 566 -18 625
-54 197 -171 311 -377 365 -91 24 -358 30 -461 10z m399 -945 c-7 -110 -37
-180 -105 -239 -66 -59 -140 -84 -235 -79 -92 4 -126 24 -147 87 -21 65 -7
127 37 172 44 43 111 69 250 99 56 11 119 27 140 35 66 24 65 25 60 -75z"/>
<path d="M3337 636 c-88 -24 -137 -77 -144 -153 -4 -39 0 -55 19 -82 32 -48
65 -65 198 -101 63 -17 125 -38 137 -46 46 -30 41 -100 -10 -138 -22 -16 -47
-22 -108 -25 -93 -4 -160 16 -186 55 -12 19 -24 24 -54 24 -47 0 -51 -19 -16
-71 30 -44 85 -75 165 -89 173 -33 324 50 324 178 0 109 -52 153 -235 198
-131 32 -149 44 -145 92 5 55 50 82 140 82 79 0 128 -18 148 -55 11 -20 21
-25 53 -25 39 0 39 0 33 32 -8 41 -50 85 -101 109 -56 25 -158 32 -218 15z"/>
<path d="M4177 640 c-98 -25 -183 -101 -213 -193 -23 -68 -22 -177 1 -247 13
-40 33 -70 74 -111 48 -48 66 -58 125 -74 146 -39 279 18 346 149 32 64 35 76
35 160 0 84 -3 97 -34 160 -35 72 -86 118 -159 144 -50 17 -130 23 -175 12z
m194 -115 c59 -42 83 -93 87 -187 5 -100 -25 -172 -89 -215 -52 -34 -153 -44
-209 -20 -78 33 -121 100 -128 198 -6 83 16 154 61 196 55 53 85 64 164 60 61
-2 78 -7 114 -32z"/>
<path d="M4870 325 l0 -325 45 0 45 0 0 150 0 149 128 3 127 3 3 43 3 42 -130
0 -131 0 0 85 0 85 150 0 150 0 0 45 0 45 -195 0 -195 0 0 -325z"/>
<path d="M5500 605 l0 -45 105 0 105 0 0 -280 0 -280 45 0 45 0 0 280 0 280
105 0 105 0 0 45 0 45 -255 0 -255 0 0 -45z"/>
<path d="M6210 645 c0 -5 153 -583 166 -627 4 -14 16 -18 47 -18 l42 0 70 265
c38 146 72 265 75 265 3 0 34 -96 68 -212 34 -117 69 -237 78 -265 l16 -53 42
0 42 0 82 313 c46 171 83 318 82 325 0 7 -15 12 -38 12 l-38 0 -63 -261 c-35
-143 -65 -258 -67 -256 -3 2 -40 118 -83 258 l-78 254 -44 0 -43 0 -70 -252
c-38 -139 -72 -253 -75 -253 -4 0 -33 114 -67 253 l-60 252 -42 3 c-23 2 -42
0 -42 -3z"/>
<path d="M7467 638 c-2 -7 -55 -143 -117 -303 -62 -160 -116 -300 -121 -312
-8 -22 -6 -23 35 -23 l43 0 42 110 42 111 132 -3 131 -3 40 -100 c21 -55 40
-102 42 -103 7 -10 84 -13 84 -4 0 5 -58 151 -129 323 l-129 314 -45 3 c-29 2
-46 -1 -50 -10z m101 -215 c23 -56 42 -107 42 -112 0 -7 -33 -11 -90 -11 -51
0 -90 4 -90 10 0 22 84 230 90 223 4 -5 25 -54 48 -110z"/>
<path d="M8110 325 l0 -325 40 0 40 0 0 130 0 130 106 0 c184 0 224 -26 264
-173 l23 -87 38 0 c47 0 48 5 18 110 -24 88 -51 135 -87 154 l-26 13 38 18
c52 25 58 43 54 150 -2 75 -7 99 -24 121 -54 73 -94 83 -321 84 l-163 0 0
-325z m375 220 c49 -24 68 -80 45 -139 -17 -45 -55 -56 -205 -56 l-135 0 0
105 0 105 131 0 c98 0 139 -4 164 -15z"/>
<path d="M8950 325 l0 -325 235 0 235 0 0 45 0 45 -195 0 -195 0 0 105 0 105
173 2 172 3 3 43 3 42 -175 0 -176 0 0 85 0 85 195 0 195 0 0 45 0 45 -235 0
-235 0 0 -325z"/>
</g>
</svg>
